<svg width="24" height="24" viewBox="0 0 24 24" fill="none" xmlns="http://www.w3.org/2000/svg">
<path d="M9.60195 21.026V13.752H6.81795C6.67341 13.752 6.53478 13.6946 6.43258 13.5924C6.33037 13.4902 6.27295 13.3515 6.27295 13.207V10.33C6.27295 10.1855 6.33037 10.0468 6.43258 9.94462C6.53478 9.84241 6.67341 9.785 6.81795 9.785H9.59095V7C9.52461 6.33955 9.60368 5.67258 9.8226 5.04595C10.0415 4.41932 10.395 3.84822 10.8581 3.37275C11.3213 2.89729 11.883 2.529 12.5036 2.29374C13.1243 2.05849 13.789 1.96198 14.4509 2.011H16.7709C16.9169 2.01071 17.057 2.0678 17.1613 2.16994C17.2655 2.27209 17.3253 2.4111 17.3279 2.557V4.993C17.3248 5.13863 17.2647 5.27724 17.1606 5.37912C17.0565 5.481 16.9166 5.53803 16.7709 5.538H15.3209C13.7549 5.538 13.4539 6.28 13.4539 7.371V9.784H17.1769C17.2543 9.78143 17.3313 9.79575 17.4026 9.82597C17.4739 9.85618 17.5377 9.90156 17.5897 9.95895C17.6417 10.0163 17.6805 10.0844 17.7035 10.1583C17.7265 10.2322 17.7332 10.3103 17.7229 10.387L17.3859 13.275C17.3691 13.4073 17.3043 13.5288 17.2038 13.6165C17.1034 13.7042 16.9743 13.7521 16.8409 13.751H13.4769V21.025C13.4788 21.1535 13.4549 21.2811 13.4066 21.4002C13.3582 21.5193 13.2865 21.6274 13.1955 21.7183C13.1046 21.8091 12.9964 21.8808 12.8772 21.929C12.7581 21.9772 12.6305 22.001 12.5019 21.999H10.5649C10.4374 21.9994 10.3111 21.9744 10.1934 21.9255C10.0756 21.8765 9.96883 21.8046 9.87918 21.714C9.78953 21.6233 9.71884 21.5157 9.67125 21.3974C9.62365 21.2791 9.60009 21.1535 9.60195 21.026Z" fill="#9F7F75"/>
</svg>
