<svg width="26" height="26" viewBox="0 0 26 26" fill="none" xmlns="http://www.w3.org/2000/svg">
<path d="M10.8333 16.25L16.4558 13L10.8333 9.75001V16.25ZM23.3566 7.76751C23.4975 8.27667 23.595 8.95917 23.66 9.82584C23.7358 10.6925 23.7683 11.44 23.7683 12.09L23.8333 13C23.8333 15.3725 23.66 17.1167 23.3566 18.2325C23.0858 19.2075 22.4575 19.8358 21.4825 20.1067C20.9733 20.2475 20.0416 20.345 18.6116 20.41C17.2033 20.4858 15.9141 20.5183 14.7225 20.5183L13 20.5833C8.46079 20.5833 5.63329 20.41 4.51746 20.1067C3.54246 19.8358 2.91413 19.2075 2.64329 18.2325C2.50246 17.7233 2.40496 17.0408 2.33996 16.1742C2.26413 15.3075 2.23163 14.56 2.23163 13.91L2.16663 13C2.16663 10.6275 2.33996 8.88334 2.64329 7.76751C2.91413 6.79251 3.54246 6.16417 4.51746 5.89334C5.02663 5.75251 5.95829 5.655 7.38829 5.59C8.79663 5.51417 10.0858 5.48167 11.2775 5.48167L13 5.41667C17.5391 5.41667 20.3666 5.59001 21.4825 5.89334C22.4575 6.16417 23.0858 6.79251 23.3566 7.76751Z" fill="#9F7F75"/>
</svg>
