<svg width="20" height="18" viewBox="0 0 20 18" fill="none" xmlns="http://www.w3.org/2000/svg">
<path fill-rule="evenodd" clip-rule="evenodd" d="M10.5948 5.262V7.24183C11.0095 6.61029 11.5809 6.09721 12.2533 5.75283C12.9258 5.40844 13.6761 5.24454 14.4308 5.27717C18.4617 5.27717 19.3332 7.79717 19.3332 11.0755V17.75H15.5998V11.8327C15.5998 10.421 15.3152 8.60567 13.1172 8.60567C10.9857 8.60567 10.6217 10.1422 10.6217 11.7277V17.75H6.90002V5.262H10.5948ZM4.39985 2.12367C4.39939 2.4935 4.28976 2.85497 4.08471 3.16276C3.87966 3.47055 3.5883 3.71095 3.24718 3.85383C2.9062 3.99556 2.53076 4.03264 2.16864 3.96034C1.80652 3.88804 1.4741 3.70963 1.21368 3.44783C0.952776 3.18587 0.775149 2.85261 0.70314 2.48996C0.63113 2.12731 0.667953 1.75147 0.808978 1.4097C0.950002 1.06792 1.18893 0.775475 1.49572 0.569129C1.80251 0.362783 2.16346 0.251753 2.53318 0.25C2.77891 0.249998 3.02221 0.298512 3.24915 0.392758C3.47608 0.487004 3.68217 0.625128 3.8556 0.799206C4.02902 0.973285 4.16638 1.17989 4.25977 1.40717C4.35317 1.63446 4.40077 1.87794 4.39985 2.12367Z" fill="#9F7F75"/>
<path d="M4.39996 5.27716H0.666626V17.75H4.39996V5.27716Z" fill="#9F7F75"/>
</svg>
