<svg width="94" height="61" viewBox="0 0 94 61" fill="none" xmlns="http://www.w3.org/2000/svg">
<path opacity="0.25" d="M31.25 28.8318H8.24219C8.96817 24.8853 10.6945 21.1057 13.3109 17.7345C15.9273 14.3633 19.3763 11.4747 23.4375 9.25305L30.4297 5.42658L26.1328 0.133301L19.1406 3.95977C13.255 7.16149 8.42855 11.4997 5.08958 16.5894C1.75061 21.6791 0.00237143 27.363 0 33.1366V54.3416C0 56.033 0.8231 57.6551 2.28823 58.8511C3.75336 60.0471 5.7405 60.719 7.8125 60.719H31.25C33.322 60.719 35.3091 60.0471 36.7743 58.8511C38.2394 57.6551 39.0625 56.033 39.0625 54.3416V35.2092C39.0625 33.5178 38.2394 31.8957 36.7743 30.6997C35.3091 29.5037 33.322 28.8318 31.25 28.8318ZM85.9375 28.8318H62.9297C63.6557 24.8853 65.382 21.1057 67.9984 17.7345C70.6148 14.3633 74.0638 11.4747 78.125 9.25305L85.1172 5.42658L80.8594 0.133301L73.8281 3.95977C67.9425 7.16149 63.1161 11.4997 59.7771 16.5894C56.4381 21.6791 54.6899 27.363 54.6875 33.1366V54.3416C54.6875 56.033 55.5106 57.6551 56.9757 58.8511C58.4409 60.0471 60.428 60.719 62.5 60.719H85.9375C88.0095 60.719 89.9966 60.0471 91.4618 58.8511C92.9269 57.6551 93.75 56.033 93.75 54.3416V35.2092C93.75 33.5178 92.9269 31.8957 91.4618 30.6997C89.9966 29.5037 88.0095 28.8318 85.9375 28.8318Z" fill="#AA8A80"/>
</svg>
